<svg width="14" height="16" viewBox="0 0 14 16" fill="none" xmlns="http://www.w3.org/2000/svg">
<path fill-rule="evenodd" clip-rule="evenodd" d="M7.00008 0.333344C7.55237 0.333344 8.00008 0.781059 8.00008 1.33334L8.00008 14.6667C8.00008 15.219 7.55237 15.6667 7.00008 15.6667C6.4478 15.6667 6.00008 15.219 6.00008 14.6667L6.00008 1.33334C6.00008 0.781059 6.4478 0.333344 7.00008 0.333344ZM12.3334 4.33334C12.8857 4.33334 13.3334 4.78106 13.3334 5.33334V10.6667C13.3334 11.219 12.8857 11.6667 12.3334 11.6667C11.7811 11.6667 11.3334 11.219 11.3334 10.6667V5.33334C11.3334 4.78106 11.7811 4.33334 12.3334 4.33334ZM2.66675 5.33334C2.66675 4.78106 2.21903 4.33334 1.66675 4.33334C1.11446 4.33334 0.666749 4.78106 0.666749 5.33334L0.666748 10.6667C0.666748 11.219 1.11446 11.6667 1.66675 11.6667C2.21903 11.6667 2.66675 11.219 2.66675 10.6667L2.66675 5.33334Z" fill="#FFF4EB"/>
</svg>
